<svg xmlns="http://www.w3.org/2000/svg" width="143" height="30" viewBox="0 0 143 30" fill="none"><path d="M40.5001 8.04999H40.3701L34.0601 21.75H36.3401L40.4401 12.66L44.5301 21.75H46.8101L40.5001 8.04999Z" fill="white"></path><path d="M50.24 19.65V8.32999H48.13V21.75H56.22V19.65H50.24Z" fill="white"></path><path d="M59.8401 19.65V8.32999H57.7301V21.75H65.8301V19.65H59.8401Z" fill="white"></path><path d="M72.9001 8.04999H72.7801L66.4601 21.75H68.7401L72.8401 12.66L76.9301 21.75H79.2101L72.9001 8.04999Z" fill="white"></path><path d="M86.6 16.38C88.14 15.88 89.26 14.37 89.26 12.64C89.26 10.25 87.21 8.32999 84.71 8.32999H80.54L80.55 21.75H82.65V10.42H84.77C86.02 10.42 87.09 11.34 87.09 12.59C87.09 13.79 86.03 14.81 84.77 14.81H83.1L87.93 21.76H90.52L86.6 16.38Z" fill="white"></path><path d="M98.0401 8.09C94.2201 8.09 91.1001 11.22 91.1001 15.05C91.1001 18.85 94.2201 21.96 98.0301 21.96C101.85 21.96 104.98 18.84 104.98 15.05C104.99 11.22 101.86 8.09 98.0401 8.09ZM98.0301 19.83C95.3801 19.83 93.2201 17.67 93.2201 15.03C93.2201 12.37 95.3801 10.21 98.0301 10.21C100.68 10.21 102.85 12.38 102.85 15.03C102.86 17.68 100.68 19.83 98.0301 19.83Z" fill="white"></path><path d="M114.65 8.32999V16.66C114.65 18.52 113.33 19.87 111.68 19.87C110.04 19.87 108.73 18.51 108.73 16.66V8.32999H106.62V16.67C106.62 19.75 108.83 22.01 111.69 22.01C114.55 22.01 116.77 19.75 116.77 16.67V8.32999H114.65Z" fill="white"></path><path d="M127.73 8.29V17.04L119.16 8.09H119.05V21.76H121.16V13.01L129.75 21.98H129.85V8.29H127.73Z" fill="white"></path><path d="M136.08 8.32999H132.26V21.75H136.08C140.34 21.75 143 19.18 143 15.06C143 10.9 140.34 8.31999 136.08 8.32999ZM136.1 19.65H134.36V10.41H136.07C139.02 10.41 140.87 12.19 140.87 15.04C140.87 17.88 139.03 19.65 136.1 19.65Z" fill="white"></path><path d="M27.2499 23.59C27.0999 21.29 25.7899 17.86 24.7699 15.46C24.0199 13.7 22.7999 12.19 21.2499 11.06L16.5699 7.66001C17.9399 7.38001 19.3499 7.23001 20.7599 7.23001C23.4699 7.23001 26.1099 7.75001 28.6099 8.78001C29.4999 10.73 29.9499 12.82 29.9499 14.99C29.9499 18.1 28.9999 21.09 27.2499 23.59Z" fill="url(#paint0_linear_5_1603)"></path><path d="M7.70996 11.76C8.17996 7.44 10.01 3.37 12.95 0.14C13.61 0.04 14.28 0 14.95 0C17.84 0 20.64 0.82 23.06 2.38C24.9 3.56 26.44 5.12 27.61 6.94C25.4 6.22 23.11 5.85 20.76 5.85C19.88 5.85 19 5.9 18.13 6.01C16.41 6.22 14.77 6.85 13.35 7.83L7.70996 11.76Z" fill="url(#paint1_linear_5_1603)"></path><path d="M8.86 21.44C5.25 19.81 2.15 17.14 0 13.81C0.26 10.48 1.65 7.3 3.92 4.83C5.78 2.82 8.15 1.35 10.75 0.589996C9.03 2.82 7.7 7.17 6.93 10.15C6.43 12.11 6.49 14.17 7.11 16.09L8.86 21.44Z" fill="url(#paint2_linear_5_1603)"></path><path d="M9.67 29.04C6.89 28 4.5 26.16 2.75 23.72C1.15 21.5 0.21 18.92 0 16.2C1.52 18.14 4.8 20.34 7.16 21.78C8.83 22.8 10.75 23.34 12.7 23.34H18.43C16.05 25.96 13.06 27.92 9.67 29.04Z" fill="url(#paint3_linear_5_1603)"></path><path d="M14.95 30C13.91 30 12.88 29.89 11.88 29.69C13.86 28.84 16.5 26.67 18.35 25.03C19.76 23.78 20.81 22.17 21.4 20.37L23.2 14.83C25.01 18 25.95 21.57 25.91 25.25C23.08 28.27 19.1 30 14.95 30Z" fill="url(#paint4_linear_5_1603)"></path><path d="M19.22 19.56L15.02 10.44H14.94L10.73 19.56H12.25L14.98 13.51L17.7 19.56H19.22Z" fill="white"></path><defs><linearGradient id="paint0_linear_5_1603" x1="20.8296" y1="4.08941" x2="28.1625" y2="21.2973" gradientUnits="userSpaceOnUse"><stop stop-color="#1B36FF"></stop><stop offset="1" stop-color="#00FCF1"></stop></linearGradient><linearGradient id="paint1_linear_5_1603" x1="5.20616" y1="6.1256" x2="25.2494" y2="5.2945" gradientUnits="userSpaceOnUse"><stop stop-color="#1B36FF"></stop><stop offset="1" stop-color="#00FCF1"></stop></linearGradient><linearGradient id="paint2_linear_5_1603" x1="3.826" y1="20.8801" x2="7.5413" y2="-0.287504" gradientUnits="userSpaceOnUse"><stop stop-color="#1B36FF"></stop><stop offset="1" stop-color="#00FCF1"></stop></linearGradient><linearGradient id="paint3_linear_5_1603" x1="18.6779" y1="29.8406" x2="-0.8277" y2="15.8103" gradientUnits="userSpaceOnUse"><stop stop-color="#1B36FF"></stop><stop offset="1" stop-color="#00FCF1"></stop></linearGradient><linearGradient id="paint4_linear_5_1603" x1="26.5607" y1="15.8586" x2="16.099" y2="31.6977" gradientUnits="userSpaceOnUse"><stop stop-color="#1B36FF"></stop><stop offset="1" stop-color="#00FCF1"></stop></linearGradient></defs></svg>