<svg width="27" height="24" viewBox="0 0 27 24" fill="none" xmlns="http://www.w3.org/2000/svg">
<path d="M25.6875 0.625H17.25C16.5223 0.625 15.8046 0.79443 15.1537 1.11987C14.5028 1.44531 13.9366 1.91783 13.5 2.5C13.0634 1.91783 12.4972 1.44531 11.8463 1.11987C11.1954 0.79443 10.4777 0.625 9.75 0.625H1.3125C1.06386 0.625 0.825403 0.723772 0.649587 0.899588C0.473772 1.0754 0.375 1.31386 0.375 1.5625V18.4375C0.375 18.6861 0.473772 18.9246 0.649587 19.1004C0.825403 19.2762 1.06386 19.375 1.3125 19.375H9.75C10.4959 19.375 11.2113 19.6713 11.7387 20.1988C12.2662 20.7262 12.5625 21.4416 12.5625 22.1875C12.5625 22.4361 12.6613 22.6746 12.8371 22.8504C13.0129 23.0262 13.2514 23.125 13.5 23.125C13.7486 23.125 13.9871 23.0262 14.1629 22.8504C14.3387 22.6746 14.4375 22.4361 14.4375 22.1875C14.4375 21.4416 14.7338 20.7262 15.2613 20.1988C15.7887 19.6713 16.5041 19.375 17.25 19.375H25.6875C25.9361 19.375 26.1746 19.2762 26.3504 19.1004C26.5262 18.9246 26.625 18.6861 26.625 18.4375V1.5625C26.625 1.31386 26.5262 1.0754 26.3504 0.899588C26.1746 0.723772 25.9361 0.625 25.6875 0.625ZM9.75 17.5H2.25V2.5H9.75C10.4959 2.5 11.2113 2.79632 11.7387 3.32376C12.2662 3.85121 12.5625 4.56658 12.5625 5.3125V18.4375C11.7519 17.8275 10.7645 17.4984 9.75 17.5ZM24.75 17.5H17.25C16.2355 17.4984 15.2481 17.8275 14.4375 18.4375V5.3125C14.4375 4.56658 14.7338 3.85121 15.2613 3.32376C15.7887 2.79632 16.5041 2.5 17.25 2.5H24.75V17.5Z" fill="white"/>
</svg>
