<svg width="25" height="24" viewBox="0 0 25 24" fill="none" xmlns="http://www.w3.org/2000/svg">
<path d="M12.9372 6.37518V11.4693L17.17 14.0088C17.3832 14.1368 17.5369 14.3443 17.5971 14.5856C17.6573 14.8269 17.6192 15.0823 17.4911 15.2955C17.3631 15.5087 17.1556 15.6623 16.9143 15.7225C16.673 15.7827 16.4176 15.7446 16.2044 15.6166L11.5169 12.8041C11.3782 12.7207 11.2634 12.6029 11.1837 12.462C11.104 12.3211 11.0622 12.162 11.0622 12.0002V6.37518C11.0622 6.12654 11.161 5.88808 11.3368 5.71226C11.5126 5.53645 11.7511 5.43768 11.9997 5.43768C12.2484 5.43768 12.4868 5.53645 12.6626 5.71226C12.8385 5.88808 12.9372 6.12654 12.9372 6.37518ZM23.2497 3.56268C23.0011 3.56268 22.7626 3.66145 22.5868 3.83726C22.411 4.01308 22.3122 4.25154 22.3122 4.50018V6.60955C21.5681 5.74705 20.8087 4.91619 19.9544 4.05135C18.391 2.48772 16.4014 1.4195 14.2343 0.980163C12.0672 0.540823 9.81869 0.749846 7.76971 1.58111C5.72073 2.41238 3.96215 3.82903 2.71371 5.65406C1.46527 7.47908 0.782323 9.63154 0.75021 11.8425C0.718098 14.0534 1.33824 16.2248 2.53316 18.0853C3.72807 19.9458 5.44476 21.413 7.46873 22.3034C9.4927 23.1938 11.7342 23.468 13.9131 23.0918C16.0921 22.7156 18.1118 21.7056 19.72 20.1881C19.8096 20.1034 19.8816 20.002 19.932 19.8895C19.9823 19.777 20.01 19.6557 20.0135 19.5326C20.017 19.4094 19.9962 19.2867 19.9523 19.1716C19.9083 19.0564 19.8422 18.9511 19.7575 18.8615C19.6729 18.7719 19.5714 18.6999 19.459 18.6496C19.3465 18.5992 19.2252 18.5715 19.102 18.568C18.9788 18.5645 18.8562 18.5853 18.741 18.6293C18.6259 18.6732 18.5205 18.7394 18.431 18.824C17.0904 20.0874 15.4073 20.9278 13.592 21.2404C11.7766 21.5529 9.90939 21.3238 8.22349 20.5815C6.53759 19.8392 5.10771 18.6167 4.11244 17.0667C3.11716 15.5166 2.60057 13.7077 2.6272 11.8658C2.65383 10.0239 3.22248 8.23071 4.26215 6.71007C5.30182 5.18943 6.76643 4.00878 8.47309 3.31554C10.1797 2.62231 12.0528 2.44721 13.8584 2.81212C15.6639 3.17703 17.322 4.06577 18.6255 5.36736C19.5794 6.33299 20.415 7.26346 21.2575 8.25018H18.5622C18.3136 8.25018 18.0751 8.34895 17.8993 8.52476C17.7235 8.70058 17.6247 8.93904 17.6247 9.18768C17.6247 9.43632 17.7235 9.67477 17.8993 9.85059C18.0751 10.0264 18.3136 10.1252 18.5622 10.1252H23.2497C23.4984 10.1252 23.7368 10.0264 23.9126 9.85059C24.0885 9.67477 24.1872 9.43632 24.1872 9.18768V4.50018C24.1872 4.25154 24.0885 4.01308 23.9126 3.83726C23.7368 3.66145 23.4984 3.56268 23.2497 3.56268Z" fill="white"/>
</svg>
