<svg width="40" height="40" viewBox="0 0 40 40" fill="none" xmlns="http://www.w3.org/2000/svg">
<path d="M27.866 25.8844L25.0003 23.0172V32.5C25.0003 32.8315 24.8687 33.1495 24.6342 33.3839C24.3998 33.6183 24.0819 33.75 23.7503 33.75C23.4188 33.75 23.1009 33.6183 22.8665 33.3839C22.632 33.1495 22.5003 32.8315 22.5003 32.5V23.0172L19.6347 25.8844C19.5186 26.0005 19.3807 26.0926 19.229 26.1555C19.0772 26.2183 18.9146 26.2507 18.7503 26.2507C18.5861 26.2507 18.4235 26.2183 18.2717 26.1555C18.12 26.0926 17.9821 26.0005 17.866 25.8844C17.7498 25.7682 17.6577 25.6304 17.5949 25.4786C17.532 25.3269 17.4996 25.1642 17.4996 25C17.4996 24.8358 17.532 24.6731 17.5949 24.5214C17.6577 24.3696 17.7498 24.2318 17.866 24.1156L22.866 19.1156C22.9821 18.9994 23.1199 18.9072 23.2717 18.8443C23.4234 18.7814 23.5861 18.749 23.7503 18.749C23.9146 18.749 24.0773 18.7814 24.229 18.8443C24.3808 18.9072 24.5186 18.9994 24.6347 19.1156L29.6347 24.1156C29.7509 24.2318 29.843 24.3696 29.9058 24.5214C29.9687 24.6731 30.001 24.8358 30.001 25C30.001 25.1642 29.9687 25.3269 29.9058 25.4786C29.843 25.6304 29.7509 25.7682 29.6347 25.8844C29.5186 26.0005 29.3807 26.0926 29.229 26.1555C29.0772 26.2183 28.9146 26.2507 28.7503 26.2507C28.5861 26.2507 28.4235 26.2183 28.2717 26.1555C28.12 26.0926 27.9821 26.0005 27.866 25.8844ZM25.0003 6.25C22.4465 6.25193 19.9436 6.9644 17.7716 8.30771C15.5997 9.65102 13.8443 11.5722 12.7019 13.8562C11.3418 13.6564 9.95506 13.7391 8.62835 14.0992C7.30163 14.4594 6.06342 15.0892 4.99105 15.9494C3.91868 16.8095 3.03517 17.8816 2.39572 19.0985C1.75627 20.3155 1.3746 21.6512 1.27456 23.0223C1.17452 24.3934 1.35825 25.7703 1.81428 27.0672C2.27031 28.3641 2.98884 29.553 3.92499 30.5598C4.86115 31.5665 5.99482 32.3694 7.25521 32.9183C8.51559 33.4672 9.87562 33.7503 11.2503 33.75H17.5003C17.8319 33.75 18.1498 33.6183 18.3842 33.3839C18.6186 33.1495 18.7503 32.8315 18.7503 32.5C18.7503 32.1685 18.6186 31.8505 18.3842 31.6161C18.1498 31.3817 17.8319 31.25 17.5003 31.25H11.2503C9.26122 31.25 7.35357 30.4598 5.94704 29.0533C4.54052 27.6468 3.75034 25.7391 3.75034 23.75C3.75034 21.7609 4.54052 19.8532 5.94704 18.4467C7.35357 17.0402 9.26122 16.25 11.2503 16.25C11.4222 16.25 11.5941 16.25 11.7644 16.2688C11.4227 17.483 11.2497 18.7386 11.2503 20C11.2503 20.3315 11.382 20.6495 11.6165 20.8839C11.8509 21.1183 12.1688 21.25 12.5003 21.25C12.8319 21.25 13.1498 21.1183 13.3842 20.8839C13.6186 20.6495 13.7503 20.3315 13.7503 20C13.7507 17.9718 14.2992 15.9814 15.3381 14.2395C16.3769 12.4975 17.8673 11.0688 19.6516 10.1045C21.4359 9.14026 23.4477 8.67627 25.4741 8.76169C27.5005 8.8471 29.4661 9.47873 31.1629 10.5897C32.8598 11.7008 34.2247 13.2498 35.1132 15.073C36.0018 16.8962 36.381 18.9257 36.2106 20.9467C36.0402 22.9677 35.3267 24.9051 34.1454 26.5538C32.9642 28.2025 31.3592 29.5012 29.5003 30.3125C29.2364 30.4269 29.02 30.6289 28.8876 30.8843C28.7553 31.1398 28.7151 31.433 28.7738 31.7146C28.8326 31.9963 28.9867 32.249 29.2101 32.4302C29.4336 32.6114 29.7127 32.71 30.0003 32.7094C30.1726 32.7092 30.3429 32.673 30.5003 32.6031C33.3962 31.3399 35.7687 29.118 37.2188 26.3111C38.6689 23.5042 39.1082 20.2836 38.4627 17.1908C37.8173 14.0981 36.1264 11.322 33.6747 9.32947C31.2229 7.33691 28.1597 6.24945 25.0003 6.25Z" fill="#0D0071"/>
</svg>
