<svg width="38" height="28" viewBox="0 0 38 28" fill="none" xmlns="http://www.w3.org/2000/svg">
<path d="M26.866 19.8844L24.0003 17.0172V26.5C24.0003 26.8315 23.8687 27.1495 23.6342 27.3839C23.3998 27.6183 23.0819 27.75 22.7503 27.75C22.4188 27.75 22.1009 27.6183 21.8665 27.3839C21.632 27.1495 21.5003 26.8315 21.5003 26.5V17.0172L18.6347 19.8844C18.5186 20.0005 18.3807 20.0926 18.229 20.1555C18.0772 20.2183 17.9146 20.2507 17.7503 20.2507C17.5861 20.2507 17.4235 20.2183 17.2717 20.1555C17.12 20.0926 16.9821 20.0005 16.866 19.8844C16.7498 19.7682 16.6577 19.6304 16.5949 19.4786C16.532 19.3269 16.4996 19.1642 16.4996 19C16.4996 18.8358 16.532 18.6731 16.5949 18.5214C16.6577 18.3696 16.7498 18.2318 16.866 18.1156L21.866 13.1156C21.9821 12.9994 22.1199 12.9072 22.2717 12.8443C22.4234 12.7814 22.5861 12.749 22.7503 12.749C22.9146 12.749 23.0773 12.7814 23.229 12.8443C23.3808 12.9072 23.5186 12.9994 23.6347 13.1156L28.6347 18.1156C28.7509 18.2318 28.843 18.3696 28.9058 18.5214C28.9687 18.6731 29.001 18.8358 29.001 19C29.001 19.1642 28.9687 19.3269 28.9058 19.4786C28.843 19.6304 28.7509 19.7682 28.6347 19.8844C28.5186 20.0005 28.3807 20.0926 28.229 20.1555C28.0772 20.2183 27.9146 20.2507 27.7503 20.2507C27.5861 20.2507 27.4235 20.2183 27.2717 20.1555C27.12 20.0926 26.9821 20.0005 26.866 19.8844ZM24.0003 0.25C21.4465 0.251927 18.9436 0.964401 16.7716 2.30771C14.5997 3.65102 12.8443 5.57218 11.7019 7.85625C10.3418 7.65638 8.95506 7.7391 7.62835 8.09924C6.30163 8.45938 5.06342 9.0892 3.99105 9.94936C2.91868 10.8095 2.03517 11.8816 1.39572 13.0985C0.756269 14.3155 0.374604 15.6512 0.274562 17.0223C0.17452 18.3934 0.35825 19.7703 0.814278 21.0672C1.27031 22.3641 1.98884 23.553 2.92499 24.5598C3.86115 25.5665 4.99482 26.3694 6.25521 26.9183C7.51559 27.4672 8.87562 27.7503 10.2503 27.75H16.5003C16.8319 27.75 17.1498 27.6183 17.3842 27.3839C17.6186 27.1495 17.7503 26.8315 17.7503 26.5C17.7503 26.1685 17.6186 25.8505 17.3842 25.6161C17.1498 25.3817 16.8319 25.25 16.5003 25.25H10.2503C8.26122 25.25 6.35357 24.4598 4.94704 23.0533C3.54052 21.6468 2.75034 19.7391 2.75034 17.75C2.75034 15.7609 3.54052 13.8532 4.94704 12.4467C6.35357 11.0402 8.26122 10.25 10.2503 10.25C10.4222 10.25 10.5941 10.25 10.7644 10.2688C10.4227 11.483 10.2497 12.7386 10.2503 14C10.2503 14.3315 10.382 14.6495 10.6165 14.8839C10.8509 15.1183 11.1688 15.25 11.5003 15.25C11.8319 15.25 12.1498 15.1183 12.3842 14.8839C12.6186 14.6495 12.7503 14.3315 12.7503 14C12.7507 11.9718 13.2992 9.98143 14.3381 8.23948C15.3769 6.49754 16.8673 5.06882 18.6516 4.10454C20.4359 3.14026 22.4477 2.67627 24.4741 2.76169C26.5005 2.8471 28.4661 3.47873 30.1629 4.58975C31.8598 5.70076 33.2247 7.24982 34.1132 9.07301C35.0018 10.8962 35.381 12.9257 35.2106 14.9467C35.0402 16.9677 34.3267 18.9051 33.1454 20.5538C31.9642 22.2025 30.3592 23.5012 28.5003 24.3125C28.2364 24.4269 28.02 24.6289 27.8876 24.8843C27.7553 25.1398 27.7151 25.433 27.7738 25.7146C27.8326 25.9963 27.9867 26.249 28.2101 26.4302C28.4336 26.6114 28.7127 26.71 29.0003 26.7094C29.1726 26.7092 29.3429 26.673 29.5003 26.6031C32.3962 25.3399 34.7687 23.118 36.2188 20.3111C37.6689 17.5042 38.1082 14.2836 37.4627 11.1908C36.8173 8.09813 35.1264 5.32203 32.6747 3.32947C30.2229 1.33691 27.1597 0.249451 24.0003 0.25Z" fill="#0D0071"/>
</svg>
