<svg width="29" height="40" viewBox="0 0 29 40" fill="none" xmlns="http://www.w3.org/2000/svg">
<path d="M8.02741 2.35315C7.7037 2.35315 7.44141 2.61552 7.44141 2.93915C7.44141 3.26279 7.7037 3.52516 8.02741 3.52516H13.9104C14.2341 3.52516 14.4964 3.26279 14.4964 2.93915C14.4964 2.61552 14.2341 2.35315 13.9104 2.35315H8.02741Z" fill="white"/>
<path d="M16.2637 3.5254C16.5874 3.5254 16.8497 3.26304 16.8497 2.9394C16.8497 2.61576 16.5874 2.35339 16.2637 2.35339C15.9401 2.35339 15.6777 2.61576 15.6777 2.9394C15.6777 3.26304 15.9401 3.5254 16.2637 3.5254Z" fill="white"/>
<path d="M25.7613 18.8268C25.167 18.8058 24.6017 19.0033 24.1544 19.3851C23.9512 19.0461 23.666 18.7597 23.3218 18.5572V4.10204C23.3218 1.84013 21.4816 0 19.2198 0H17.4453C17.1216 0 16.8593 0.262374 16.8593 0.586005C16.8593 0.909636 17.1216 1.17201 17.4453 1.17201H19.2198C20.8354 1.17201 22.1498 2.48638 22.1498 4.10204V4.7064H2.14271V4.10204C2.14271 2.48638 3.45708 1.17201 5.07274 1.17201H14.7106C15.0343 1.17201 15.2966 0.909636 15.2966 0.586005C15.2966 0.262374 15.0343 0 14.7106 0H5.07274C2.81092 0 0.970703 1.84013 0.970703 4.10204V14.7611C0.970703 15.0847 1.233 15.3471 1.55671 15.3471C1.88042 15.3471 2.14271 15.0847 2.14271 14.7611V5.87841H22.1497V18.237C21.6097 18.2367 21.0713 18.4231 20.6313 18.7914C20.4242 18.4469 20.1307 18.1567 19.7771 17.9552L19.7916 14.1079C19.7916 12.4922 18.4773 11.1779 16.8616 11.1779H7.43004C5.81439 11.1779 4.50002 12.4922 4.50002 14.1079V17.6559C4.50002 19.2716 5.81439 20.586 7.43004 20.586H12.7421L12.7474 24.9894C12.7641 25.4976 12.17 25.7852 11.7823 25.4552L10.2296 24.1331C9.32659 23.3648 7.92119 23.4766 7.17493 24.4743C6.86334 24.8904 6.72832 25.3936 6.76231 25.885H2.14271V17.4958C2.14271 17.1721 1.88042 16.9098 1.55671 16.9098C1.233 16.9098 0.970703 17.1721 0.970703 17.4958V27.6618C0.970703 29.9237 2.81092 31.7638 5.07274 31.7638H11.9038L14.0678 33.9281C13.6061 34.4461 13.3249 35.1281 13.3249 35.8749V37.0699C13.3249 38.6856 14.6393 39.9999 16.255 39.9999H24.5095C26.1252 39.9999 27.4395 38.6856 27.4395 37.0699V35.8749C27.4395 35.0057 27.0586 34.224 26.4554 33.6869C27.0847 31.8789 27.5313 30.0028 27.7827 28.106C27.8253 27.7852 27.5996 27.4906 27.2788 27.4481C26.9593 27.4053 26.6634 27.6311 26.6209 27.9521C26.3897 29.6967 25.9861 31.4229 25.4209 33.0908C25.1339 32.9966 24.8277 32.945 24.5094 32.945H16.255C15.8128 32.945 15.3935 33.044 15.0172 33.2201L8.19998 26.4021C7.65061 25.8527 7.97581 24.8958 8.75668 24.808C9.01796 24.779 9.27072 24.8561 9.46997 25.0256L11.0226 26.3477C12.1822 27.3342 13.9608 26.4818 13.9191 24.961L13.9089 15.8815C13.9089 15.2318 14.4379 14.7033 15.088 14.7033C15.738 14.7033 16.267 15.2318 16.267 15.8815L16.266 22.3527C16.2659 22.6763 16.5281 22.9387 16.8518 22.9388C17.175 22.9388 17.4379 22.6771 17.438 22.353L17.4388 20.0044C17.4388 19.6194 17.615 19.2782 17.9116 19.0563C18.6922 18.472 19.7963 19.0365 19.7963 19.9999L19.7958 22.353C19.7958 22.6767 20.0581 22.9391 20.3818 22.9391C20.7049 22.9391 20.9678 22.6773 20.9679 22.3532L20.9683 20.5882C20.9683 19.7568 21.7996 19.2076 22.5358 19.4765C23.0087 19.648 23.3264 20.1115 23.3264 20.6297L23.3256 22.3529C23.3255 22.6765 23.5877 22.939 23.9114 22.9391C24.2346 22.9391 24.4975 22.6775 24.4976 22.3534L24.4982 21.1812C24.5071 20.4606 25.0891 19.9748 25.7201 19.998C26.3464 20.02 26.8557 20.567 26.8557 21.2172L26.8411 25.2746C26.8303 25.5981 27.0837 25.8691 27.4072 25.8799C27.7322 25.8913 28.0016 25.6374 28.0125 25.3139L28.0277 21.2172C28.0277 19.9431 27.0111 18.8707 25.7613 18.8268ZM24.5095 34.1169C25.4788 34.1169 26.2675 34.9055 26.2675 35.8749V37.0699C26.2675 38.0393 25.4788 38.8279 24.5095 38.8279H16.255C15.2856 38.8279 14.497 38.0393 14.497 37.0699V35.8749C14.497 34.9055 15.2856 34.1169 16.255 34.1169H24.5095ZM10.7319 30.5918H5.07282C3.45716 30.5918 2.14279 29.2774 2.14279 27.6618V27.057H7.21767L10.7319 30.5918ZM17.439 17.9657V15.8815C17.439 14.5856 16.3844 13.5312 15.088 13.5312C13.7916 13.5312 12.7369 14.5856 12.7369 15.8821L12.7409 19.414H7.43012C6.46079 19.414 5.67211 18.6254 5.67211 17.6559V14.1079C5.67211 13.1385 6.46079 12.3499 7.43012 12.3499H16.8617C17.831 12.3499 18.6197 13.1385 18.6197 14.1079L18.6171 17.6478C18.2056 17.6468 17.8009 17.7545 17.439 17.9657Z" fill="white"/>
</svg>
