<svg width="22" height="25" viewBox="0 0 22 25" fill="none" xmlns="http://www.w3.org/2000/svg">
<path d="M21.0383 7.14922L14.4758 0.586719C14.3887 0.499687 14.2852 0.430674 14.1714 0.383622C14.0576 0.336571 13.9357 0.312403 13.8125 0.3125H2.5625C2.06522 0.3125 1.58831 0.510044 1.23667 0.861675C0.885044 1.21331 0.6875 1.69022 0.6875 2.1875V22.8125C0.6875 23.3098 0.885044 23.7867 1.23667 24.1383C1.58831 24.49 2.06522 24.6875 2.5625 24.6875H19.4375C19.9348 24.6875 20.4117 24.49 20.7633 24.1383C21.115 23.7867 21.3125 23.3098 21.3125 22.8125V7.8125C21.3126 7.68935 21.2884 7.56739 21.2414 7.45358C21.1943 7.33977 21.1253 7.23635 21.0383 7.14922ZM14.75 3.51289L18.1121 6.875H14.75V3.51289ZM19.4375 22.8125H2.5625V2.1875H12.875V7.8125C12.875 8.06114 12.9738 8.2996 13.1496 8.47541C13.3254 8.65123 13.5639 8.75 13.8125 8.75H19.4375V22.8125ZM14.75 15.3125C14.75 15.5611 14.6512 15.7996 14.4754 15.9754C14.2996 16.1512 14.0611 16.25 13.8125 16.25H8.1875C7.93886 16.25 7.7004 16.1512 7.52459 15.9754C7.34877 15.7996 7.25 15.5611 7.25 15.3125C7.25 15.0639 7.34877 14.8254 7.52459 14.6496C7.7004 14.4738 7.93886 14.375 8.1875 14.375H13.8125C14.0611 14.375 14.2996 14.4738 14.4754 14.6496C14.6512 14.8254 14.75 15.0639 14.75 15.3125Z" fill="white"/>
</svg>
