<svg width="32" height="32" viewBox="0 0 32 32" fill="none" xmlns="http://www.w3.org/2000/svg">
<g clip-path="url(#clip0_389_1616)">
<path d="M7.37025 19.2337L6.29119 23.262L2.34722 23.3454C1.16856 21.1593 0.5 18.658 0.5 16C0.5 13.4297 1.12509 11.0059 2.23309 8.8717H2.23394L5.74518 9.51544L7.28331 13.0056C6.96138 13.9441 6.78592 14.9516 6.78592 16C6.78604 17.1378 6.99214 18.228 7.37025 19.2337Z" fill="#FBBB00"/>
<path d="M31.2283 13.1044C31.4063 14.0421 31.4991 15.0104 31.4991 16C31.4991 17.1097 31.3824 18.1922 31.1601 19.2363C30.4056 22.7894 28.434 25.8919 25.7028 28.0875L25.702 28.0866L21.2794 27.861L20.6534 23.9536C22.4657 22.8907 23.882 21.2275 24.6281 19.2363H16.3398V13.1044H24.749H31.2283Z" fill="#518EF8"/>
<path d="M25.7032 28.0866L25.7041 28.0875C23.0478 30.2225 19.6736 31.5 16.0004 31.5C10.0977 31.5 4.96564 28.2008 2.34766 23.3455L7.37069 19.2338C8.67965 22.7272 12.0496 25.214 16.0004 25.214C17.6986 25.214 19.2895 24.755 20.6547 23.9536L25.7032 28.0866Z" fill="#28B446"/>
<path d="M25.8949 4.06839L20.8736 8.17928C19.4607 7.29614 17.7906 6.78598 16.0013 6.78598C11.9611 6.78598 8.52804 9.38689 7.28465 13.0056L2.23522 8.8717H2.23438C4.81404 3.89807 10.0108 0.5 16.0013 0.5C19.7622 0.5 23.2105 1.83966 25.8949 4.06839Z" fill="#F14336"/>
</g>
<defs>
<clipPath id="clip0_389_1616">
<rect width="31" height="31" fill="white" transform="translate(0.5 0.5)"/>
</clipPath>
</defs>
</svg>
