<svg width="154" height="46" viewBox="0 0 154 46" fill="none" xmlns="http://www.w3.org/2000/svg">
<path d="M64.0963 30.94H57.3716C57.1422 30.94 56.9571 30.7226 56.9571 30.453V14.6374C56.9571 13.9935 56.4782 13.4704 55.8907 13.4704C55.3031 13.4704 54.8242 13.9935 54.8242 14.6374V32.1231C54.8242 32.6221 55.1985 33.0286 55.6573 33.0286H64.1003C64.6275 33.0286 65.0581 32.5618 65.0581 31.9863C65.0581 31.4108 64.6275 30.944 64.1003 30.944L64.0963 30.94Z" fill="#0D0071"/>
<path d="M68.3939 18.4444C67.8184 18.4444 67.3516 18.9555 67.3516 19.5833V31.8857C67.3516 32.5135 67.8184 33.0246 68.3939 33.0246C68.9693 33.0246 69.4362 32.5135 69.4362 31.8857V19.5833C69.4362 18.9555 68.9693 18.4444 68.3939 18.4444Z" fill="#0D0071"/>
<path d="M68.3927 13.0599C67.6079 13.0599 66.9922 13.736 66.9922 14.5932C66.9922 15.4503 67.6079 16.1264 68.3927 16.1264C69.1774 16.1264 69.7931 15.4503 69.7931 14.5932C69.7931 13.736 69.1774 13.0599 68.3927 13.0599Z" fill="#0D0071"/>
<path d="M79.8304 18.1185C77.8504 18.1185 76.4701 19.3781 75.5847 20.6377V19.5753C75.5847 18.9515 75.1179 18.4445 74.5344 18.4445C73.9508 18.4445 73.4961 18.9515 73.4961 19.5753V31.8938C73.4961 32.5175 73.9629 33.0246 74.5464 33.0246C75.13 33.0246 75.5847 32.5175 75.5847 31.8938V23.4749C76.3493 21.9698 77.6452 20.2031 79.5326 20.2031C81.5367 20.2031 82.9935 21.841 82.9935 24.0946V31.8938C82.9935 32.5175 83.4603 33.0246 84.0438 33.0246C84.6274 33.0246 85.0821 32.5175 85.0821 31.8938V23.986C85.0821 20.5854 82.8728 18.1185 79.8304 18.1185Z" fill="#0D0071"/>
<path d="M112.875 13.4704H105.108C104.4 13.4704 103.82 14.1022 103.82 14.8789V31.9823C103.82 32.5577 104.251 33.0246 104.778 33.0246H104.999C105.527 33.0246 105.957 32.5577 105.957 31.9823V24.2234H112.227C112.754 24.2234 113.185 23.7565 113.185 23.1811C113.185 22.6056 112.754 22.1388 112.227 22.1388H105.957V15.9815C105.957 15.7481 106.118 15.559 106.315 15.559H112.875C113.402 15.559 113.833 15.0922 113.833 14.5167C113.833 13.9412 113.402 13.4744 112.875 13.4744V13.4704Z" fill="#0D0071"/>
<path d="M116.839 12.6494C116.264 12.6494 115.797 13.1605 115.797 13.7883V31.8897C115.797 32.5175 116.264 33.0286 116.839 33.0286C117.415 33.0286 117.881 32.5175 117.881 31.8897V13.7883C117.881 13.1605 117.415 12.6494 116.839 12.6494Z" fill="#0D0071"/>
<path d="M127.712 18.1185C123.812 18.1185 120.754 21.4667 120.754 25.7365C120.754 30.0063 123.808 33.3546 127.712 33.3546C131.616 33.3546 134.666 30.0063 134.666 25.7365C134.666 21.4667 131.612 18.1185 127.712 18.1185ZM127.712 31.27C125.04 31.27 122.867 28.787 122.867 25.7365C122.867 22.6861 125.04 20.2031 127.712 20.2031C130.384 20.2031 132.557 22.6861 132.557 25.7365C132.557 28.787 130.384 31.27 127.712 31.27Z" fill="#0D0071"/>
<path d="M153.6 18.863C153.403 18.5973 153.105 18.4444 152.792 18.4444C152.329 18.4444 151.93 18.7664 151.793 19.2493L148.908 29.4389L146.131 19.2614C145.998 18.7744 145.596 18.4484 145.129 18.4484H144.65C144.183 18.4484 143.781 18.7744 143.648 19.2614L140.871 29.4389L137.986 19.2493C137.849 18.7704 137.451 18.4444 136.988 18.4444C136.674 18.4444 136.376 18.5973 136.179 18.863C135.954 19.1648 135.885 19.5632 135.994 19.9334L139.539 31.9742C139.725 32.602 140.252 33.0246 140.855 33.0246C141.459 33.0246 142.002 32.5899 142.179 31.946L144.892 22.006L147.604 31.946C147.781 32.5939 148.312 33.0246 148.928 33.0246C149.544 33.0246 150.059 32.602 150.24 31.9742L153.786 19.9334C153.894 19.5632 153.826 19.1648 153.6 18.863Z" fill="#0D0071"/>
<path d="M95.0455 18.1185C91.2264 18.1185 88.2363 21.4667 88.2363 25.7365C88.2363 30.0063 91.2385 33.3546 95.2185 33.3546C97.0898 33.3546 98.8364 32.6262 100.136 31.3022C100.551 30.8796 100.547 30.1593 100.128 29.7246C99.9431 29.5355 99.7016 29.4309 99.4481 29.4309C99.1905 29.4309 98.9491 29.5355 98.7599 29.7287C97.7498 30.771 96.5103 31.3223 95.1823 31.3223C92.6711 31.3223 90.6388 29.2618 90.3773 26.4891H100.607C100.965 26.4891 101.577 26.2194 101.601 25.2093V25.2013C101.517 21.1609 98.6996 18.1145 95.0455 18.1145V18.1185ZM90.4537 24.5172C90.8884 22.01 92.8281 20.1508 95.0415 20.1508C97.2548 20.1508 99.0779 21.9335 99.4199 24.5172H90.4497H90.4537Z" fill="#0D0071"/>
<path d="M22.5 0.5C10.0729 0.5 0 10.5729 0 23C0 35.4271 10.0729 45.5 22.5 45.5C34.9271 45.5 45 35.4271 45 23C45 10.5729 34.9271 0.5 22.5 0.5ZM30.3233 23.4869L29.9732 24.5614C29.8001 24.5614 29.623 24.5574 29.45 24.5574C27.8483 24.5494 26.2426 24.6138 24.653 24.7747C23.0594 24.9317 21.4818 25.1611 19.9365 25.5192C19.86 25.5393 19.7836 25.5554 19.7031 25.5756C19.7433 25.5876 19.7836 25.5997 19.8238 25.6118C21.3772 26.0223 22.9708 26.3281 24.5846 26.5253C24.7536 26.5454 24.9226 26.5656 25.0957 26.5817L24.7536 27.628C24.6611 27.6199 24.5645 27.6119 24.4719 27.6038C22.8139 27.4509 21.1599 27.2135 19.522 26.8432C18.7936 26.6742 18.0652 26.4851 17.3448 26.2597C16.717 26.477 16.1053 26.7306 15.5218 27.0203C15.1435 27.2094 14.7813 27.4187 14.4473 27.6481C14.7491 27.8735 15.0711 28.0787 15.4051 28.2678C16.7533 29.0244 18.2745 29.5798 19.8238 29.9983C21.0995 30.3363 22.4034 30.6019 23.7194 30.7951L23.3652 31.8777C22.0774 31.7288 20.7897 31.5195 19.518 31.2297C17.8841 30.8515 16.2502 30.3726 14.6928 29.5959C14.2059 29.3504 13.727 29.0727 13.2682 28.7387C13.0388 29.0606 12.906 29.3947 12.8939 29.7246C12.8658 30.2156 13.1354 30.7629 13.5781 31.2579C13.5942 31.278 13.6103 31.2982 13.6304 31.3143C14.1133 31.8213 14.7371 32.268 15.4091 32.6503C16.7573 33.4069 18.2785 33.9623 19.8278 34.3848C20.6649 34.6062 21.51 34.7953 22.3632 34.9522L21.997 36.0791C21.1679 35.9543 20.343 35.8014 19.518 35.6163C17.8841 35.238 16.2502 34.7591 14.6928 33.9824C13.9161 33.592 13.1555 33.1172 12.4674 32.4652C12.3869 32.3888 12.3064 32.3042 12.2299 32.2197C11.9804 31.9501 11.751 31.6442 11.5619 31.2941C11.3124 30.8394 11.1434 30.2921 11.1313 29.7246C11.1192 29.1572 11.2681 28.5978 11.5055 28.127C11.6263 27.8855 11.7631 27.6602 11.916 27.4509C12.0609 27.2497 12.2178 27.0686 12.3788 26.8955C12.6163 26.6501 12.8617 26.4287 13.1193 26.2235C13.5861 25.8452 14.0771 25.5273 14.5761 25.2496C14.6083 25.2295 14.6405 25.2134 14.6727 25.1973C15.2361 24.8874 15.8116 24.6218 16.3951 24.3803C16.5802 24.3039 16.7694 24.2314 16.9585 24.159C17.7674 23.8532 18.5803 23.5956 19.4053 23.3783C21.0553 22.9517 22.7213 22.6418 24.3995 22.4487C26.0776 22.2555 27.7638 22.167 29.446 22.1468C29.8806 22.1468 30.3152 22.1549 30.7499 22.167L30.3193 23.4829L30.3233 23.4869ZM31.9169 19.9375C31.269 19.9093 30.6211 19.9053 29.9732 19.9013C28.3715 19.8932 26.7658 19.9576 25.1762 20.1226C23.5825 20.2755 22.005 20.5089 20.4597 20.8671C18.9224 21.2253 17.4012 21.684 16.045 22.3642C15.6667 22.5533 15.3045 22.7626 14.9705 22.9919C14.7089 23.169 14.4634 23.3622 14.2421 23.5674C14.069 23.7365 13.9161 23.9095 13.7914 24.0906C13.562 24.4125 13.4292 24.7466 13.4171 25.0725C13.409 25.2214 13.4292 25.3784 13.4694 25.5313C13.1636 25.7647 12.8698 26.0223 12.5881 26.312C12.4432 26.4649 12.3064 26.6259 12.1776 26.7949C12.1454 26.7426 12.1172 26.6903 12.0891 26.638C11.8396 26.1832 11.6705 25.6359 11.6585 25.0685C11.6464 24.5051 11.7953 23.9457 12.0327 23.4708C12.1535 23.2294 12.2903 23.004 12.4432 22.7948C12.5881 22.5976 12.745 22.4124 12.906 22.2394C13.1434 21.9939 13.393 21.7726 13.6465 21.5673C13.9081 21.3541 14.1817 21.1649 14.4594 20.9838C14.6727 20.847 14.886 20.7142 15.1033 20.5935C15.4776 20.3842 15.8599 20.195 16.2462 20.018C16.6567 19.8329 17.0672 19.6598 17.4857 19.5029C18.2946 19.197 19.1075 18.9354 19.9325 18.7221C21.5825 18.2956 23.2485 17.9857 24.9267 17.7925C26.6048 17.5994 28.291 17.5108 29.9732 17.4947C30.8786 17.4947 31.7801 17.5229 32.6856 17.5833L31.9209 19.9335L31.9169 19.9375ZM33.4985 15.2894C32.8506 15.2612 32.2026 15.2572 31.5547 15.2532C29.953 15.2451 28.3473 15.3095 26.7577 15.4745C25.1641 15.6274 23.5866 15.8609 22.0412 16.219C20.5039 16.5772 18.9868 17.0359 17.6265 17.7161C17.2483 17.9052 16.8861 18.1145 16.552 18.3439C16.2905 18.5209 16.045 18.7141 15.8236 18.9193C15.6506 19.0884 15.4977 19.2614 15.3729 19.4425C15.1838 19.7081 15.063 19.9818 15.0188 20.2554C14.9906 20.2715 14.9584 20.2876 14.9302 20.3037C14.7089 20.4285 14.4876 20.5653 14.2662 20.7061C13.9443 20.9154 13.6706 21.1126 13.4251 21.3098C13.4131 21.3178 13.405 21.3299 13.393 21.342C13.3044 21.0522 13.2441 20.7464 13.24 20.4325C13.228 19.8691 13.3769 19.3097 13.6143 18.8348C13.735 18.5934 13.8718 18.368 14.0248 18.1587C14.1696 17.9615 14.3226 17.7764 14.4876 17.6034C14.725 17.3579 14.9745 17.1366 15.228 16.9313C15.4936 16.718 15.7633 16.5289 16.041 16.3478C16.2542 16.211 16.4675 16.0782 16.6848 15.9574C17.0591 15.7482 17.4414 15.559 17.8278 15.382C18.2382 15.1968 18.6487 15.0238 19.0672 14.8668C19.8761 14.561 20.6891 14.2994 21.514 14.0861C23.164 13.6595 24.8301 13.3497 26.5082 13.1565C28.1864 12.9633 29.8726 12.8748 31.5547 12.8587C32.4602 12.8587 33.3616 12.8869 34.2671 12.9472L33.5025 15.2974L33.4985 15.2894Z" fill="#0D0071"/>
</svg>
