<svg width="154" height="45" viewBox="0 0 154 45" fill="none" xmlns="http://www.w3.org/2000/svg">
<path d="M40.63 22.3389C40.63 12.7974 32.8951 5.0625 23.3536 5.0625C13.8121 5.0625 6.07715 12.7974 6.07715 22.3389C6.07715 31.8804 13.8121 39.6154 23.3536 39.6154C32.8951 39.6154 40.63 31.8804 40.63 22.3389Z" fill="white"/>
<path d="M64.0953 30.4403H57.3706C57.1412 30.4403 56.9561 30.223 56.9561 29.9534V14.1378C56.9561 13.4939 56.4772 12.9707 55.8897 12.9707C55.3021 12.9707 54.8232 13.4939 54.8232 14.1378V31.6234C54.8232 32.1225 55.1975 32.5289 55.6563 32.5289H64.0993C64.6265 32.5289 65.0571 32.0621 65.0571 31.4866C65.0571 30.9111 64.6265 30.4443 64.0993 30.4443L64.0953 30.4403Z" fill="white"/>
<path d="M68.3939 17.9443C67.8184 17.9443 67.3516 18.4554 67.3516 19.0832V31.3856C67.3516 32.0134 67.8184 32.5245 68.3939 32.5245C68.9693 32.5245 69.4362 32.0134 69.4362 31.3856V19.0832C69.4362 18.4554 68.9693 17.9443 68.3939 17.9443Z" fill="white"/>
<path d="M68.3936 12.5596C67.6089 12.5596 66.9932 13.2357 66.9932 14.0928C66.9932 14.95 67.6089 15.6261 68.3936 15.6261C69.1784 15.6261 69.7941 14.95 69.7941 14.0928C69.7941 13.2357 69.1784 12.5596 68.3936 12.5596Z" fill="white"/>
<path d="M79.8304 17.6182C77.8504 17.6182 76.4701 18.8778 75.5847 20.1374V19.075C75.5847 18.4512 75.1179 17.9441 74.5344 17.9441C73.9508 17.9441 73.4961 18.4512 73.4961 19.075V31.3934C73.4961 32.0172 73.9629 32.5243 74.5464 32.5243C75.13 32.5243 75.5847 32.0172 75.5847 31.3934V22.9745C76.3493 21.4694 77.6452 19.7028 79.5326 19.7028C81.5367 19.7028 82.9935 21.3407 82.9935 23.5943V31.3934C82.9935 32.0172 83.4603 32.5243 84.0438 32.5243C84.6274 32.5243 85.0821 32.0172 85.0821 31.3934V23.4856C85.0821 20.0851 82.8728 17.6182 79.8304 17.6182Z" fill="white"/>
<path d="M112.874 12.9707H105.107C104.399 12.9707 103.819 13.6025 103.819 14.3792V31.4826C103.819 32.0581 104.25 32.5249 104.777 32.5249H104.998C105.526 32.5249 105.956 32.0581 105.956 31.4826V23.7237H112.226C112.753 23.7237 113.184 23.2569 113.184 22.6814C113.184 22.1059 112.753 21.6391 112.226 21.6391H105.956V15.4819C105.956 15.2485 106.117 15.0593 106.314 15.0593H112.874C113.401 15.0593 113.832 14.5925 113.832 14.017C113.832 13.4415 113.401 12.9747 112.874 12.9747V12.9707Z" fill="white"/>
<path d="M116.838 12.1494C116.263 12.1494 115.796 12.6605 115.796 13.2883V31.3897C115.796 32.0175 116.263 32.5286 116.838 32.5286C117.414 32.5286 117.881 32.0175 117.881 31.3897V13.2883C117.881 12.6605 117.414 12.1494 116.838 12.1494Z" fill="white"/>
<path d="M127.712 17.6182C123.812 17.6182 120.754 20.9664 120.754 25.2362C120.754 29.506 123.808 32.8543 127.712 32.8543C131.616 32.8543 134.666 29.506 134.666 25.2362C134.666 20.9664 131.612 17.6182 127.712 17.6182ZM127.712 30.7697C125.04 30.7697 122.867 28.2867 122.867 25.2362C122.867 22.1858 125.04 19.7028 127.712 19.7028C130.384 19.7028 132.557 22.1858 132.557 25.2362C132.557 28.2867 130.384 30.7697 127.712 30.7697Z" fill="white"/>
<path d="M153.6 18.3629C153.403 18.0973 153.105 17.9443 152.792 17.9443C152.329 17.9443 151.93 18.2663 151.793 18.7492L148.908 28.9388L146.131 18.7613C145.998 18.2743 145.596 17.9484 145.129 17.9484H144.65C144.183 17.9484 143.781 18.2743 143.648 18.7613L140.871 28.9388L137.986 18.7492C137.849 18.2703 137.451 17.9443 136.988 17.9443C136.674 17.9443 136.376 18.0973 136.179 18.3629C135.954 18.6647 135.885 19.0631 135.994 19.4333L139.539 31.4741C139.725 32.1019 140.252 32.5245 140.855 32.5245C141.459 32.5245 142.002 32.0898 142.179 31.4459L144.892 21.5059L147.604 31.4459C147.781 32.0939 148.312 32.5245 148.928 32.5245C149.544 32.5245 150.059 32.1019 150.24 31.4741L153.786 19.4333C153.894 19.0631 153.826 18.6647 153.6 18.3629Z" fill="white"/>
<path d="M95.0465 17.6183C91.2274 17.6183 88.2373 20.9665 88.2373 25.2363C88.2373 29.5061 91.2394 32.8544 95.2195 32.8544C97.0908 32.8544 98.8374 32.126 100.137 30.802C100.552 30.3794 100.548 29.6591 100.129 29.2244C99.9441 29.0353 99.7026 28.9307 99.4491 28.9307C99.1915 28.9307 98.9501 29.0353 98.7609 29.2285C97.7508 30.2708 96.5113 30.8221 95.1833 30.8221C92.6721 30.8221 90.6398 28.7616 90.3782 25.9889H100.608C100.966 25.9889 101.578 25.7192 101.602 24.7091V24.7011C101.518 20.6607 98.7005 17.6143 95.0465 17.6143V17.6183ZM90.4547 24.017C90.8893 21.5098 92.8291 19.6506 95.0424 19.6506C97.2558 19.6506 99.0788 21.4333 99.4209 24.017H90.4507H90.4547Z" fill="white"/>
<path d="M22.5 0C10.0729 0 0 10.0729 0 22.5C0 34.9271 10.0729 45 22.5 45C34.9271 45 45 34.9271 45 22.5C45 10.0729 34.9271 0 22.5 0ZM30.3233 22.9869L29.9732 24.0614C29.8001 24.0614 29.623 24.0574 29.45 24.0574C27.8483 24.0494 26.2426 24.1138 24.653 24.2747C23.0594 24.4317 21.4818 24.6611 19.9365 25.0192C19.86 25.0393 19.7836 25.0554 19.7031 25.0756C19.7433 25.0876 19.7836 25.0997 19.8238 25.1118C21.3772 25.5223 22.9708 25.8281 24.5846 26.0253C24.7536 26.0454 24.9226 26.0656 25.0957 26.0817L24.7536 27.128C24.6611 27.1199 24.5645 27.1119 24.4719 27.1038C22.8139 26.9509 21.1599 26.7135 19.522 26.3432C18.7936 26.1742 18.0652 25.9851 17.3448 25.7597C16.717 25.977 16.1053 26.2306 15.5218 26.5203C15.1435 26.7094 14.7813 26.9187 14.4473 27.1481C14.7492 27.3735 15.0711 27.5787 15.4051 27.7678C16.7533 28.5244 18.2745 29.0798 19.8238 29.4983C21.0995 29.8363 22.4034 30.1019 23.7194 30.2951L23.3652 31.3777C22.0774 31.2288 20.7897 31.0195 19.518 30.7297C17.8841 30.3515 16.2502 29.8726 14.6928 29.0959C14.2059 28.8504 13.727 28.5727 13.2682 28.2387C13.0388 28.5606 12.906 28.8947 12.8939 29.2246C12.8658 29.7156 13.1354 30.2629 13.5781 30.7579C13.5942 30.778 13.6103 30.7982 13.6304 30.8143C14.1133 31.3213 14.7371 31.768 15.4091 32.1503C16.7573 32.9069 18.2785 33.4623 19.8278 33.8848C20.6649 34.1062 21.51 34.2953 22.3632 34.4522L21.997 35.5791C21.1679 35.4543 20.343 35.3014 19.518 35.1163C17.8841 34.738 16.2502 34.2591 14.6928 33.4824C13.9161 33.092 13.1555 32.6172 12.4674 31.9652C12.3869 31.8888 12.3064 31.8042 12.2299 31.7197C11.9804 31.4501 11.751 31.1442 11.5619 30.7941C11.3124 30.3394 11.1434 29.7921 11.1313 29.2246C11.1192 28.6572 11.2681 28.0978 11.5055 27.627C11.6263 27.3855 11.7631 27.1602 11.916 26.9509C12.0609 26.7497 12.2178 26.5686 12.3788 26.3955C12.6163 26.1501 12.8617 25.9287 13.1193 25.7235C13.5861 25.3452 14.0771 25.0273 14.5761 24.7496C14.6083 24.7295 14.6405 24.7134 14.6727 24.6973C15.2361 24.3874 15.8116 24.1218 16.3951 23.8803C16.5802 23.8039 16.7694 23.7314 16.9585 23.659C17.7674 23.3532 18.5803 23.0956 19.4053 22.8783C21.0553 22.4517 22.7213 22.1418 24.3995 21.9487C26.0776 21.7555 27.7638 21.667 29.446 21.6468C29.8806 21.6468 30.3152 21.6549 30.7499 21.667L30.3193 22.9829L30.3233 22.9869ZM31.9169 19.4375C31.269 19.4093 30.6211 19.4053 29.9732 19.4013C28.3715 19.3932 26.7658 19.4576 25.1762 19.6226C23.5825 19.7755 22.005 20.0089 20.4597 20.3671C18.9224 20.7253 17.4012 21.184 16.045 21.8642C15.6667 22.0533 15.3045 22.2626 14.9705 22.4919C14.7089 22.669 14.4634 22.8622 14.2421 23.0674C14.069 23.2365 13.9161 23.4095 13.7914 23.5906C13.562 23.9125 13.4292 24.2466 13.4171 24.5725C13.409 24.7214 13.4292 24.8784 13.4694 25.0313C13.1636 25.2647 12.8698 25.5223 12.5881 25.812C12.4432 25.9649 12.3064 26.1259 12.1776 26.2949C12.1454 26.2426 12.1172 26.1903 12.0891 26.138C11.8396 25.6832 11.6705 25.1359 11.6585 24.5685C11.6464 24.0051 11.7953 23.4457 12.0327 22.9708C12.1535 22.7294 12.2903 22.504 12.4432 22.2948C12.5881 22.0976 12.745 21.9124 12.906 21.7394C13.1434 21.4939 13.393 21.2726 13.6465 21.0673C13.9081 20.8541 14.1817 20.6649 14.4594 20.4838C14.6727 20.347 14.886 20.2142 15.1033 20.0935C15.4776 19.8842 15.8599 19.695 16.2462 19.518C16.6567 19.3329 17.0672 19.1598 17.4857 19.0029C18.2946 18.697 19.1075 18.4354 19.9325 18.2221C21.5825 17.7956 23.2485 17.4857 24.9267 17.2925C26.6048 17.0994 28.291 17.0108 29.9732 16.9947C30.8786 16.9947 31.7801 17.0229 32.6856 17.0833L31.9209 19.4335L31.9169 19.4375ZM33.4985 14.7894C32.8506 14.7612 32.2026 14.7572 31.5547 14.7532C29.953 14.7451 28.3473 14.8095 26.7577 14.9745C25.1641 15.1274 23.5866 15.3609 22.0412 15.719C20.5039 16.0772 18.9868 16.5359 17.6265 17.2161C17.2483 17.4052 16.8861 17.6145 16.552 17.8439C16.2905 18.0209 16.045 18.2141 15.8236 18.4193C15.6506 18.5884 15.4977 18.7614 15.3729 18.9425C15.1838 19.2081 15.063 19.4818 15.0188 19.7554C14.9906 19.7715 14.9584 19.7876 14.9302 19.8037C14.7089 19.9285 14.4876 20.0653 14.2662 20.2061C13.9443 20.4154 13.6706 20.6126 13.4251 20.8098C13.4131 20.8178 13.405 20.8299 13.393 20.842C13.3044 20.5522 13.2441 20.2464 13.24 19.9325C13.228 19.3691 13.3769 18.8097 13.6143 18.3348C13.735 18.0934 13.8718 17.868 14.0248 17.6587C14.1696 17.4615 14.3226 17.2764 14.4876 17.1034C14.725 16.8579 14.9745 16.6366 15.228 16.4313C15.4936 16.218 15.7633 16.0289 16.041 15.8478C16.2542 15.711 16.4675 15.5782 16.6848 15.4574C17.0591 15.2482 17.4414 15.059 17.8278 14.882C18.2382 14.6968 18.6487 14.5238 19.0672 14.3668C19.8761 14.061 20.6891 13.7994 21.514 13.5861C23.164 13.1595 24.8301 12.8497 26.5082 12.6565C28.1864 12.4633 29.8726 12.3748 31.5547 12.3587C32.4602 12.3587 33.3616 12.3869 34.2671 12.4472L33.5025 14.7974L33.4985 14.7894Z" fill="#0D0071"/>
</svg>
