<svg width="18" height="28" viewBox="0 0 18 28" fill="none" xmlns="http://www.w3.org/2000/svg">
<path d="M14.625 0.875H3.375C2.62908 0.875 1.91371 1.17132 1.38626 1.69876C0.858816 2.22621 0.5625 2.94158 0.5625 3.6875V24.3125C0.5625 25.0584 0.858816 25.7738 1.38626 26.3012C1.91371 26.8287 2.62908 27.125 3.375 27.125H14.625C15.3709 27.125 16.0863 26.8287 16.6137 26.3012C17.1412 25.7738 17.4375 25.0584 17.4375 24.3125V3.6875C17.4375 2.94158 17.1412 2.22621 16.6137 1.69876C16.0863 1.17132 15.3709 0.875 14.625 0.875ZM2.4375 6.5H15.5625V21.5H2.4375V6.5ZM3.375 2.75H14.625C14.8736 2.75 15.1121 2.84877 15.2879 3.02459C15.4637 3.2004 15.5625 3.43886 15.5625 3.6875V4.625H2.4375V3.6875C2.4375 3.43886 2.53627 3.2004 2.71209 3.02459C2.8879 2.84877 3.12636 2.75 3.375 2.75ZM14.625 25.25H3.375C3.12636 25.25 2.8879 25.1512 2.71209 24.9754C2.53627 24.7996 2.4375 24.5611 2.4375 24.3125V23.375H15.5625V24.3125C15.5625 24.5611 15.4637 24.7996 15.2879 24.9754C15.1121 25.1512 14.8736 25.25 14.625 25.25Z" fill="white"/>
</svg>
