<svg width="23" height="28" viewBox="0 0 23 28" fill="none" xmlns="http://www.w3.org/2000/svg">
<path d="M14.3128 26.25C14.3128 26.4986 14.2141 26.7371 14.0382 26.9129C13.8624 27.0887 13.624 27.1875 13.3753 27.1875H9.62534C9.3767 27.1875 9.13824 27.0887 8.96242 26.9129C8.78661 26.7371 8.68784 26.4986 8.68784 26.25C8.68784 26.0014 8.78661 25.7629 8.96242 25.5871C9.13824 25.4113 9.3767 25.3125 9.62534 25.3125H13.3753C13.624 25.3125 13.8624 25.4113 14.0382 25.5871C14.2141 25.7629 14.3128 26.0014 14.3128 26.25ZM11.5003 13.125C11.7785 13.125 12.0504 13.0425 12.2816 12.888C12.5129 12.7335 12.6931 12.5139 12.7995 12.2569C12.906 11.9999 12.9338 11.7172 12.8796 11.4444C12.8253 11.1716 12.6914 10.921 12.4947 10.7244C12.298 10.5277 12.0475 10.3938 11.7747 10.3395C11.5019 10.2853 11.2191 10.3131 10.9622 10.4195C10.7052 10.526 10.4856 10.7062 10.3311 10.9375C10.1766 11.1687 10.0941 11.4406 10.0941 11.7187C10.0941 12.0917 10.2422 12.4494 10.506 12.7131C10.7697 12.9768 11.1274 13.125 11.5003 13.125ZM22.7058 18.2613L21.2574 24.7805C21.1887 25.09 21.0425 25.3771 20.8327 25.6149C20.6229 25.8526 20.3561 26.0333 20.0575 26.1399C19.7589 26.2466 19.4381 26.2758 19.1251 26.2247C18.8121 26.1737 18.5172 26.0441 18.2679 25.848L15.0757 23.4375H7.92729L4.73276 25.848C4.48348 26.0441 4.18857 26.1737 3.87559 26.2247C3.56262 26.2758 3.24181 26.2466 2.94316 26.1399C2.64452 26.0333 2.37781 25.8526 2.16797 25.6149C1.95813 25.3771 1.81202 25.09 1.7433 24.7805L0.294866 18.2613C0.233426 17.9816 0.23653 17.6915 0.303943 17.4131C0.371356 17.1347 0.501306 16.8753 0.683928 16.6547L4.0308 12.6398C4.14314 11.1644 4.48187 9.71499 5.0351 8.34258C6.54682 4.55273 9.25385 2.175 10.3519 1.3289C10.6806 1.07424 11.0846 0.936035 11.5003 0.936035C11.9161 0.936035 12.3201 1.07424 12.6488 1.3289C13.7433 2.175 16.4539 4.55273 17.9656 8.34258C18.5188 9.71499 18.8575 11.1644 18.9699 12.6398L22.3167 16.6547C22.4994 16.8753 22.6293 17.1347 22.6967 17.4131C22.7641 17.6915 22.7672 17.9816 22.7058 18.2613ZM8.15229 21.5625H14.8484C17.3234 17.1633 17.7863 12.9516 16.2242 9.0375C14.846 5.58281 12.2609 3.39843 11.5003 2.8125C10.7374 3.39843 8.15229 5.58281 6.77416 9.0375C5.2144 12.9516 5.67729 17.1633 8.15229 21.5625ZM6.39448 22.248C5.13276 19.9551 4.36713 17.7016 4.0976 15.4875L2.12533 17.8547L3.57377 24.375L3.59487 24.3598L6.39448 22.248ZM20.8753 17.8547L18.9031 15.4875C18.6359 17.6969 17.8718 19.9504 16.6109 22.248L19.4058 24.3574L19.4269 24.3727L20.8753 17.8547Z" fill="white"/>
</svg>
