<svg width="25" height="25" viewBox="0 0 25 25" fill="none" xmlns="http://www.w3.org/2000/svg">
<path d="M24.2322 2.52192C24.2045 2.0648 24.0104 1.63365 23.6865 1.30983C23.3627 0.986 22.9315 0.791884 22.4744 0.764105C21.0002 0.676214 17.2326 0.81098 14.1061 3.93637L13.5494 4.50004H6.71388C6.46671 4.49865 6.22173 4.54642 5.99318 4.64057C5.76464 4.73473 5.5571 4.87338 5.38263 5.04848L1.3631 9.07036C1.1166 9.31669 0.943621 9.62686 0.863589 9.96604C0.783558 10.3052 0.799637 10.66 0.910023 10.9905C1.02041 11.3211 1.22073 11.6143 1.48851 11.8374C1.75629 12.0604 2.08093 12.2044 2.42599 12.2532L6.9342 12.8825L12.1151 18.0633L12.7444 22.5739C12.7927 22.919 12.9367 23.2436 13.1599 23.5112C13.3832 23.7787 13.6768 23.9785 14.0076 24.0879C14.2003 24.1523 14.4021 24.1851 14.6053 24.1852C14.8513 24.1857 15.0949 24.1374 15.3222 24.0433C15.5495 23.9492 15.7559 23.811 15.9295 23.6368L19.9514 19.6172C20.1265 19.4428 20.2651 19.2352 20.3593 19.0067C20.4534 18.7781 20.5012 18.5332 20.4998 18.286V11.4504L21.0588 10.8914C24.1854 7.76489 24.3201 3.99731 24.2322 2.52192ZM6.71388 6.37504H11.6744L7.04201 11.0063L2.68732 10.3993L6.71388 6.37504ZM15.4338 5.26762C16.3347 4.36122 17.4185 3.65747 18.6131 3.20338C19.8076 2.7493 21.0853 2.55532 22.3608 2.63442C22.4429 3.91057 22.2509 5.18952 21.7978 6.38531C21.3446 7.58111 20.6407 8.66606 19.7334 9.56723L12.9998 16.2985L8.70138 12L15.4338 5.26762ZM18.6248 18.286L14.6018 22.3125L13.9936 17.9567L18.6248 13.3254V18.286ZM9.9342 19.3993C9.40685 20.5547 7.64318 23.25 2.68732 23.25C2.43868 23.25 2.20022 23.1513 2.02441 22.9755C1.84859 22.7996 1.74982 22.5612 1.74982 22.3125C1.74982 17.3567 4.44513 15.593 5.6006 15.0645C5.71264 15.0134 5.83364 14.9849 5.9567 14.9805C6.07975 14.9762 6.20246 14.9962 6.31781 15.0393C6.43315 15.0824 6.53889 15.1477 6.62896 15.2317C6.71904 15.3157 6.7917 15.4165 6.84279 15.5286C6.89388 15.6406 6.92241 15.7616 6.92674 15.8847C6.93107 16.0077 6.91112 16.1304 6.86802 16.2458C6.82493 16.3611 6.75954 16.4668 6.67559 16.5569C6.59164 16.647 6.49076 16.7197 6.37873 16.7707C5.62521 17.1141 3.96232 18.2192 3.66935 21.3305C6.78068 21.0375 7.8881 19.3747 8.22912 18.6211C8.28021 18.5091 8.35287 18.4082 8.44295 18.3243C8.53302 18.2403 8.63875 18.1749 8.7541 18.1318C8.86945 18.0887 8.99216 18.0688 9.11521 18.0731C9.23827 18.0775 9.35927 18.106 9.47131 18.1571C9.58334 18.2082 9.68421 18.2808 9.76817 18.3709C9.85212 18.461 9.91751 18.5667 9.9606 18.6821C10.0037 18.7974 10.0236 18.9201 10.0193 19.0432C10.015 19.1662 9.98646 19.2872 9.93537 19.3993H9.9342Z" fill="white"/>
</svg>
