<svg width="17" height="20" viewBox="0 0 17 20" fill="none" xmlns="http://www.w3.org/2000/svg">
<path d="M16.5306 5.71938L11.2806 0.469375C11.2109 0.399749 11.1282 0.344539 11.0371 0.306898C10.9461 0.269257 10.8485 0.249923 10.75 0.25H1.75C1.35218 0.25 0.970644 0.408035 0.68934 0.68934C0.408035 0.970645 0.25 1.35218 0.25 1.75V18.25C0.25 18.6478 0.408035 19.0294 0.68934 19.3107C0.970644 19.592 1.35218 19.75 1.75 19.75H15.25C15.6478 19.75 16.0294 19.592 16.3107 19.3107C16.592 19.0294 16.75 18.6478 16.75 18.25V6.25C16.7501 6.15148 16.7307 6.05391 16.6931 5.96286C16.6555 5.87182 16.6003 5.78908 16.5306 5.71938ZM11.5 2.81031L14.1897 5.5H11.5V2.81031ZM15.25 18.25H1.75V1.75H10V6.25C10 6.44891 10.079 6.63968 10.2197 6.78033C10.3603 6.92098 10.5511 7 10.75 7H15.25V18.25ZM11.2806 10.9694C11.3503 11.0391 11.4056 11.1218 11.4433 11.2128C11.481 11.3039 11.5004 11.4015 11.5004 11.5C11.5004 11.5985 11.481 11.6961 11.4433 11.7872C11.4056 11.8782 11.3503 11.9609 11.2806 12.0306C11.2109 12.1003 11.1282 12.1556 11.0372 12.1933C10.9461 12.231 10.8485 12.2504 10.75 12.2504C10.6515 12.2504 10.5539 12.231 10.4628 12.1933C10.3718 12.1556 10.2891 12.1003 10.2194 12.0306L9.25 11.0603V15.25C9.25 15.4489 9.17098 15.6397 9.03033 15.7803C8.88968 15.921 8.69891 16 8.5 16C8.30109 16 8.11032 15.921 7.96967 15.7803C7.82902 15.6397 7.75 15.4489 7.75 15.25V11.0603L6.78063 12.0306C6.71094 12.1003 6.62822 12.1556 6.53717 12.1933C6.44613 12.231 6.34855 12.2504 6.25 12.2504C6.15145 12.2504 6.05387 12.231 5.96283 12.1933C5.87178 12.1556 5.78906 12.1003 5.71937 12.0306C5.64969 11.9609 5.59442 11.8782 5.5567 11.7872C5.51899 11.6961 5.49958 11.5985 5.49958 11.5C5.49958 11.4015 5.51899 11.3039 5.5567 11.2128C5.59442 11.1218 5.64969 11.0391 5.71937 10.9694L7.96937 8.71937C8.03903 8.64964 8.12175 8.59432 8.21279 8.55658C8.30384 8.51884 8.40144 8.49941 8.5 8.49941C8.59856 8.49941 8.69616 8.51884 8.7872 8.55658C8.87825 8.59432 8.96097 8.64964 9.03063 8.71937L11.2806 10.9694Z" fill="#0D0071"/>
</svg>
